<?xml version="1.0" encoding="UTF-8" standalone="no"?>
<!-- Created with Inkscape (http://www.inkscape.org/) -->

<svg
   width="210mm"
   height="297mm"
   viewBox="0 0 210 297"
   version="1.1"
   id="svg1"
   inkscape:version="1.3 (0e150ed6c4, 2023-07-21)"
   sodipodi:docname="LullabyLogo.svg"
   inkscape:export-filename="Logo Lullaby.png"
   inkscape:export-xdpi="546.0152"
   inkscape:export-ydpi="546.0152"
   xmlns:inkscape="http://www.inkscape.org/namespaces/inkscape"
   xmlns:sodipodi="http://sodipodi.sourceforge.net/DTD/sodipodi-0.dtd"
   xmlns:xlink="http://www.w3.org/1999/xlink"
   xmlns="http://www.w3.org/2000/svg"
   xmlns:svg="http://www.w3.org/2000/svg">
  <sodipodi:namedview
     id="namedview1"
     pagecolor="#505050"
     bordercolor="#eeeeee"
     borderopacity="1"
     inkscape:showpageshadow="0"
     inkscape:pageopacity="0"
     inkscape:pagecheckerboard="0"
     inkscape:deskcolor="#505050"
     inkscape:document-units="mm"
     inkscape:zoom="1.4142136"
     inkscape:cx="43.487067"
     inkscape:cy="241.47697"
     inkscape:window-width="1920"
     inkscape:window-height="1017"
     inkscape:window-x="1912"
     inkscape:window-y="0"
     inkscape:window-maximized="1"
     inkscape:current-layer="layer1" />
  <defs
     id="defs1">
    <inkscape:path-effect
       effect="fillet_chamfer"
       id="path-effect33"
       is_visible="true"
       lpeversion="1"
       nodesatellites_param="F,0,0,1,0,0.5,0,1 @ F,0,0,1,0,0,0,1 @ F,0,0,1,0,0.5,0,1 @ F,0,0,1,0,0,0,1 @ F,0,0,1,0,0.5,0,1 @ F,0,0,1,0,0,0,1 @ F,0,0,1,0,0.5,0,1 @ F,0,0,1,0,0,0,1 @ F,0,0,1,0,0.5,0,1 @ F,0,0,1,0,0,0,1"
       radius="0"
       unit="px"
       method="auto"
       mode="F"
       chamfer_steps="1"
       flexible="false"
       use_knot_distance="true"
       apply_no_radius="true"
       apply_with_radius="true"
       only_selected="false"
       hide_knots="false" />
    <inkscape:path-effect
       effect="fillet_chamfer"
       id="path-effect31"
       is_visible="true"
       lpeversion="1"
       nodesatellites_param="F,0,0,1,0,0.5,0,1 @ F,0,0,1,0,0,0,1 @ F,0,0,1,0,0.5,0,1 @ F,0,0,1,0,0,0,1 @ F,0,0,1,0,1,0,1 @ F,0,0,1,0,0.38,0,1 @ F,0,0,1,0,1,0,1 @ F,0,0,1,0,0,0,1 @ F,0,0,1,0,0.5,0,1 @ F,0,0,1,0,0,0,1"
       radius="0"
       unit="px"
       method="auto"
       mode="F"
       chamfer_steps="1"
       flexible="false"
       use_knot_distance="true"
       apply_no_radius="true"
       apply_with_radius="true"
       only_selected="false"
       hide_knots="false" />
    <inkscape:path-effect
       effect="fillet_chamfer"
       id="path-effect23"
       is_visible="true"
       lpeversion="1"
       nodesatellites_param="F,0,0,1,0,0.5,0,1 @ F,0,0,1,0,0,0,1 @ F,0,0,1,0,0.5,0,1 @ F,0,0,1,0,0,0,1 @ F,0,0,1,0,0.5,0,1 @ F,0,0,1,0,0,0,1 @ F,0,0,1,0,0.5,0,1 @ F,0,0,1,0,0,0,1 @ F,0,0,1,0,0.5,0,1 @ F,0,0,1,0,0,0,1"
       radius="0"
       unit="px"
       method="auto"
       mode="F"
       chamfer_steps="1"
       flexible="false"
       use_knot_distance="true"
       apply_no_radius="true"
       apply_with_radius="true"
       only_selected="false"
       hide_knots="false" />
    <inkscape:path-effect
       effect="fillet_chamfer"
       id="path-effect21"
       is_visible="true"
       lpeversion="1"
       nodesatellites_param="F,0,0,1,0,1,0,1 @ F,0,0,1,0,0.38,0,1 @ F,0,0,1,0,1,0,1 @ F,0,0,1,0,0,0,1 @ F,0,0,1,0,0.5,0,1 @ F,0,0,1,0,0,0,1 @ F,0,0,1,0,0.5,0,1 @ F,0,0,1,0,0,0,1 @ F,0,0,1,0,1,0,1 @ F,0,0,1,0,0.38,0,1"
       radius="0"
       unit="px"
       method="auto"
       mode="F"
       chamfer_steps="1"
       flexible="false"
       use_knot_distance="true"
       apply_no_radius="true"
       apply_with_radius="true"
       only_selected="false"
       hide_knots="false" />
    <inkscape:path-effect
       effect="fillet_chamfer"
       id="path-effect8"
       is_visible="true"
       lpeversion="1"
       nodesatellites_param="F,0,0,1,0,0.5,0,1 @ F,0,0,1,0,0,0,1 @ F,0,0,1,0,0.5,0,1 @ F,0,0,1,0,0,0,1 @ F,0,0,1,0,0.5,0,1 @ F,0,0,1,0,0,0,1 @ F,0,0,1,0,0.5,0,1 @ F,0,0,1,0,0,0,1 @ F,0,0,1,0,0.5,0,1 @ F,0,0,1,0,0,0,1"
       radius="0"
       unit="px"
       method="auto"
       mode="F"
       chamfer_steps="1"
       flexible="false"
       use_knot_distance="true"
       apply_no_radius="true"
       apply_with_radius="true"
       only_selected="false"
       hide_knots="false" />
    <inkscape:path-effect
       effect="fillet_chamfer"
       id="path-effect3"
       is_visible="true"
       lpeversion="1"
       nodesatellites_param="F,0,0,1,0,1,0,1 @ F,0,0,1,0,0.38,0,1 @ F,0,0,1,0,1,0,1 @ F,0,0,1,0,0,0,1 @ F,0,0,1,0,0.5,0,1 @ F,0,0,1,0,0,0,1 @ F,0,0,1,0,0.5,0,1 @ F,0,0,1,0,0,0,1 @ F,0,0,1,0,1,0,1 @ F,0,0,1,0,0.38,0,1"
       radius="0"
       unit="px"
       method="auto"
       mode="F"
       chamfer_steps="1"
       flexible="false"
       use_knot_distance="true"
       apply_no_radius="true"
       apply_with_radius="true"
       only_selected="false"
       hide_knots="false" />
    <inkscape:path-effect
       effect="fillet_chamfer"
       id="path-effect40"
       is_visible="true"
       lpeversion="1"
       nodesatellites_param="F,0,0,1,0,0,0,1 @ F,0,0,1,0,0,0,1 @ F,0,0,1,0,0,0,1 @ F,0,0,1,0,2.4700336,0,1 @ F,0,0,1,0,0,0,1 @ F,0,0,1,0,2.7827314,0,1 @ F,0,0,1,0,2.5101338,0,1"
       radius="0"
       unit="px"
       method="auto"
       mode="F"
       chamfer_steps="1"
       flexible="false"
       use_knot_distance="true"
       apply_no_radius="true"
       apply_with_radius="true"
       only_selected="false"
       hide_knots="false" />
    <inkscape:path-effect
       effect="fillet_chamfer"
       id="path-effect38"
       is_visible="true"
       lpeversion="1"
       nodesatellites_param="F,0,0,1,0,0,0,1 @ F,0,0,1,0,0,0,1 @ F,0,0,1,0,0,0,1 @ F,0,0,1,0,2.4700336,0,1 @ F,0,0,1,0,0,0,1 @ F,0,0,1,0,0,0,1 @ F,0,0,1,0,2.5101338,0,1"
       radius="0"
       unit="px"
       method="auto"
       mode="F"
       chamfer_steps="1"
       flexible="false"
       use_knot_distance="true"
       apply_no_radius="true"
       apply_with_radius="true"
       only_selected="false"
       hide_knots="false" />
    <inkscape:path-effect
       effect="fillet_chamfer"
       id="path-effect5"
       is_visible="true"
       lpeversion="1"
       nodesatellites_param="F,0,0,1,0,0.5,0,1 @ F,0,0,1,0,0,0,1 @ F,0,0,1,0,0.5,0,1 @ F,0,0,1,0,0,0,1 @ F,0,0,1,0,0.5,0,1 @ F,0,0,1,0,0,0,1 @ F,0,0,1,0,0.5,0,1 @ F,0,0,1,0,0,0,1 @ F,0,0,1,0,0.5,0,1 @ F,0,0,1,0,0,0,1"
       radius="0"
       unit="px"
       method="auto"
       mode="F"
       chamfer_steps="1"
       flexible="false"
       use_knot_distance="true"
       apply_no_radius="true"
       apply_with_radius="true"
       only_selected="false"
       hide_knots="false" />
    <inkscape:path-effect
       effect="fillet_chamfer"
       id="path-effect4"
       is_visible="true"
       lpeversion="1"
       nodesatellites_param="F,0,0,1,0,0,0,1 @ F,0,0,1,0,0,0,1 @ F,0,0,1,0,0,0,1 @ F,0,0,1,0,2.4700336,0,1 @ F,0,0,1,0,0,0,1 @ F,0,0,1,0,0,0,1 @ F,0,0,1,0,2.5101338,0,1"
       radius="0"
       unit="px"
       method="auto"
       mode="F"
       chamfer_steps="1"
       flexible="false"
       use_knot_distance="true"
       apply_no_radius="true"
       apply_with_radius="true"
       only_selected="false"
       hide_knots="false" />
    <inkscape:path-effect
       effect="fillet_chamfer"
       id="path-effect5-9"
       is_visible="true"
       lpeversion="1"
       nodesatellites_param="F,0,0,1,0,0.5,0,1 @ F,0,0,1,0,0,0,1 @ F,0,0,1,0,0.5,0,1 @ F,0,0,1,0,0,0,1 @ F,0,0,1,0,0.5,0,1 @ F,0,0,1,0,0,0,1 @ F,0,0,1,0,0.5,0,1 @ F,0,0,1,0,0,0,1 @ F,0,0,1,0,0.5,0,1 @ F,0,0,1,0,0,0,1"
       radius="0"
       unit="px"
       method="auto"
       mode="F"
       chamfer_steps="1"
       flexible="false"
       use_knot_distance="true"
       apply_no_radius="true"
       apply_with_radius="true"
       only_selected="false"
       hide_knots="false" />
    <pattern
       inkscape:collect="always"
       xlink:href="#Polkadots-small"
       preserveAspectRatio="none"
       id="pattern37"
       patternTransform="matrix(2.9776384,0.36560802,-0.36560802,2.9776384,0,0)"
       x="0"
       y="0" />
    <pattern
       patternUnits="userSpaceOnUse"
       width="10"
       height="10"
       patternTransform="scale(10)"
       preserveAspectRatio="none"
       style="fill:#c4a474"
       id="Polkadots-small"
       inkscape:stockid="Polka dots, small"
       x="0"
       y="0"
       inkscape:label="Polka dots small"
       inkscape:collect="always"
       inkscape:isstock="true">
      <circle
         style="stroke:none"
         cx="2.567"
         cy="0.810"
         r="0.05"
         id="circle228" />
      <circle
         style="stroke:none"
         cx="3.048"
         cy="2.33"
         r="0.05"
         id="circle230" />
      <circle
         style="stroke:none"
         cx="4.418"
         cy="2.415"
         r="0.05"
         id="circle232" />
      <circle
         style="stroke:none"
         cx="1.844"
         cy="3.029"
         r="0.05"
         id="circle234" />
      <circle
         style="stroke:none"
         cx="6.08"
         cy="1.363"
         r="0.05"
         id="circle236" />
      <circle
         style="stroke:none"
         cx="5.819"
         cy="4.413"
         r="0.05"
         id="circle238" />
      <circle
         style="stroke:none"
         cx="4.305"
         cy="4.048"
         r="0.05"
         id="circle240" />
      <circle
         style="stroke:none"
         cx="5.541"
         cy="3.045"
         r="0.05"
         id="circle242" />
      <circle
         style="stroke:none"
         cx="4.785"
         cy="5.527"
         r="0.05"
         id="circle244" />
      <circle
         style="stroke:none"
         cx="2.667"
         cy="5.184"
         r="0.05"
         id="circle246" />
      <circle
         style="stroke:none"
         cx="7.965"
         cy="1.448"
         r="0.05"
         id="circle248" />
      <circle
         style="stroke:none"
         cx="7.047"
         cy="5.049"
         r="0.05"
         id="circle250" />
      <circle
         style="stroke:none"
         cx="4.340"
         cy="0.895"
         r="0.05"
         id="circle252" />
      <circle
         style="stroke:none"
         cx="7.125"
         cy="0.340"
         r="0.05"
         id="circle254" />
      <circle
         style="stroke:none"
         cx="9.550"
         cy="1.049"
         r="0.05"
         id="circle256" />
      <circle
         style="stroke:none"
         cx="7.006"
         cy="2.689"
         r="0.05"
         id="circle258" />
      <circle
         style="stroke:none"
         cx="8.909"
         cy="2.689"
         r="0.05"
         id="circle260" />
      <circle
         style="stroke:none"
         cx="9.315"
         cy="4.407"
         r="0.05"
         id="circle262" />
      <circle
         style="stroke:none"
         cx="7.820"
         cy="3.870"
         r="0.05"
         id="circle264" />
      <circle
         style="stroke:none"
         cx="8.270"
         cy="5.948"
         r="0.05"
         id="circle266" />
      <circle
         style="stroke:none"
         cx="7.973"
         cy="7.428"
         r="0.05"
         id="circle268" />
      <circle
         style="stroke:none"
         cx="9.342"
         cy="8.072"
         r="0.05"
         id="circle270" />
      <circle
         style="stroke:none"
         cx="8.206"
         cy="9.315"
         r="0.05"
         id="circle272" />
      <circle
         style="stroke:none"
         cx="9.682"
         cy="9.475"
         r="0.05"
         id="circle274" />
      <circle
         style="stroke:none"
         cx="9.688"
         cy="6.186"
         r="0.05"
         id="circle276" />
      <circle
         style="stroke:none"
         cx="3.379"
         cy="6.296"
         r="0.05"
         id="circle278" />
      <circle
         style="stroke:none"
         cx="2.871"
         cy="8.204"
         r="0.05"
         id="circle280" />
      <circle
         style="stroke:none"
         cx="4.59"
         cy="8.719"
         r="0.05"
         id="circle282" />
      <circle
         style="stroke:none"
         cx="3.181"
         cy="9.671"
         r="0.05"
         id="circle284" />
      <circle
         style="stroke:none"
         cx="5.734"
         cy="7.315"
         r="0.05"
         id="circle286" />
      <circle
         style="stroke:none"
         cx="6.707"
         cy="6.513"
         r="0.05"
         id="circle288" />
      <circle
         style="stroke:none"
         cx="5.730"
         cy="9.670"
         r="0.05"
         id="circle290" />
      <circle
         style="stroke:none"
         cx="6.535"
         cy="8.373"
         r="0.05"
         id="circle292" />
      <circle
         style="stroke:none"
         cx="4.37"
         cy="7.154"
         r="0.05"
         id="circle294" />
      <circle
         style="stroke:none"
         cx="0.622"
         cy="7.25"
         r="0.05"
         id="circle296" />
      <circle
         style="stroke:none"
         cx="0.831"
         cy="5.679"
         r="0.05"
         id="circle298" />
      <circle
         style="stroke:none"
         cx="1.257"
         cy="8.519"
         r="0.05"
         id="circle300" />
      <circle
         style="stroke:none"
         cx="1.989"
         cy="6.877"
         r="0.05"
         id="circle302" />
      <circle
         style="stroke:none"
         cx="0.374"
         cy="3.181"
         r="0.05"
         id="circle304" />
      <circle
         style="stroke:none"
         cx="1.166"
         cy="1.664"
         r="0.05"
         id="circle306" />
      <circle
         style="stroke:none"
         cx="1.151"
         cy="0.093"
         r="0.05"
         id="circle308" />
      <circle
         style="stroke:none"
         cx="1.151"
         cy="10.093"
         r="0.05"
         id="circle310" />
      <circle
         style="stroke:none"
         cx="1.302"
         cy="4.451"
         r="0.05"
         id="circle312" />
      <circle
         style="stroke:none"
         cx="3.047"
         cy="3.763"
         r="0.05"
         id="circle314" />
    </pattern>
  </defs>
  <g
     inkscape:label="Capa 1"
     inkscape:groupmode="layer"
     id="layer1">
    <rect
       style="opacity:1;fill:#483f58;fill-opacity:1;stroke:none;stroke-width:0.427475;stroke-opacity:1"
       id="rect84"
       width="59.582001"
       height="57.342678"
       x="25.02306"
       y="88.586487" />
    <circle
       style="opacity:1;fill:#483f58;fill-opacity:1;stroke:none;stroke-width:0.403001;stroke-opacity:1"
       id="path29"
       cx="53.878616"
       cy="46.599342"
       r="23.222334"
       inkscape:export-filename=".\path29.png"
       inkscape:export-xdpi="546.0152"
       inkscape:export-ydpi="546.0152" />
    <circle
       style="fill:url(#pattern37);fill-opacity:1;stroke:none;stroke-width:0.403001;stroke-opacity:1"
       id="path29-7"
       cx="53.878616"
       cy="46.599342"
       r="23.222334" />
    <path
       style="fill:none;stroke:#cebacf;stroke-width:0.2;stroke-dasharray:none;stroke-opacity:1"
       d="m 59.169381,23.949408 0,12.516309"
       id="path8"
       sodipodi:nodetypes="cc"
       inkscape:label="Colgante1" />
    <path
       style="display:inline;fill:none;stroke:#cebacf;stroke-width:0.2;stroke-dasharray:none;stroke-opacity:1"
       d="m 56.508569,24.433424 v 6.555889"
       id="path8-5"
       sodipodi:nodetypes="cc"
       inkscape:label="Colgante2" />
    <path
       id="path1"
       style="display:inline;fill:#cebacf;stroke-width:0.264583;fill-opacity:1"
       d="m 54.08197,23.152075 c -12.886587,1.04e-4 -23.333124,10.446873 -23.332942,23.33346 1.04e-4,12.886385 10.446557,23.332838 23.332942,23.332942 11.674999,-0.02371 21.394258,-8.636441 23.040518,-19.947417 0.196386,-1.349313 -0.171445,-1.419313 -0.856746,-0.241146 -2.945851,5.064495 -8.305463,8.255666 -14.179092,8.268361 -9.138,3.4e-5 -16.545815,-7.584542 -16.545761,-16.940568 0.01931,-7.925918 5.37439,-14.650257 12.697861,-16.435636 1.345525,-0.328023 1.397825,-0.738562 0.03486,-0.988201 -1.381181,-0.252974 -2.784066,-0.381066 -4.191638,-0.381795 z"
       inkscape:original-d="M 54.08197,23.152075 A 23.33313,23.33313 0 0 0 30.749028,46.485535 23.33313,23.33313 0 0 0 54.08197,69.818477 23.33313,23.33313 0 0 0 77.349284,47.41261 16.5457,16.940468 0 0 1 62.08665,57.898275 16.5457,16.940468 0 0 1 45.540889,40.957707 16.5457,16.940468 0 0 1 60.713607,24.117908 23.33313,23.33313 0 0 0 54.08197,23.152075 Z"
       inkscape:path-effect="#path-effect4"
       inkscape:label="Luna" />
    <path
       sodipodi:type="star"
       style="display:inline;fill:#e8ca8a;stroke-width:0.264583;fill-opacity:1"
       id="path4"
       inkscape:flatsided="false"
       sodipodi:sides="5"
       sodipodi:cx="59.153442"
       sodipodi:cy="30.056343"
       sodipodi:r1="3.7096319"
       sodipodi:r2="1.8557647"
       sodipodi:arg1="0.94453489"
       sodipodi:arg2="1.5728534"
       inkscape:rounded="0"
       inkscape:randomized="0"
       inkscape:transform-center-x="-0.0028733279"
       inkscape:transform-center-y="-0.42909283"
       transform="matrix(1.2190299,0,0,1.2190299,-12.951534,2.9200083)"
       d="m 60.885565,32.828548 -1.73594,-0.916444 -1.739696,0.909294 a 0.2469768,0.2469768 36.117863 0 1 -0.357754,-0.26105 l 0.335154,-1.934174 -1.402385,-1.373562 a 0.2469768,0.2469768 108.11786 0 1 0.137721,-0.420913 l 1.943077,-0.278942 0.872974,-1.758202 a 0.2469768,0.2469768 0.11786322 0 1 0.442871,9.11e-4 l 0.865733,1.761779 1.941913,0.286933 a 0.2469768,0.2469768 72.117863 0 1 0.135988,0.421477 l -1.408025,1.36778 0.327195,1.935537 a 0.2469768,0.2469768 144.11786 0 1 -0.358826,0.259576 z"
       inkscape:path-effect="#path-effect5"
       inkscape:label="Estrella1" />
    <path
       sodipodi:type="star"
       style="display:inline;fill:#afc485;stroke-width:0.264583;fill-opacity:1"
       id="path4-0"
       inkscape:flatsided="false"
       sodipodi:sides="5"
       sodipodi:cx="59.153442"
       sodipodi:cy="30.056343"
       sodipodi:r1="3.7096319"
       sodipodi:r2="1.8557647"
       sodipodi:arg1="0.94453489"
       sodipodi:arg2="1.5728534"
       inkscape:rounded="0"
       inkscape:randomized="0"
       inkscape:transform-center-x="-0.0014589987"
       inkscape:transform-center-y="-0.21781009"
       transform="matrix(0.61878763,0,0,0.61878763,19.899517,13.596037)"
       d="m 60.885565,32.828548 -1.73594,-0.916444 -1.739696,0.909294 a 0.2469768,0.2469768 36.117863 0 1 -0.357754,-0.26105 l 0.335154,-1.934174 -1.402385,-1.373562 a 0.2469768,0.2469768 108.11786 0 1 0.137721,-0.420913 l 1.943077,-0.278942 0.872974,-1.758202 a 0.2469768,0.2469768 0.11786322 0 1 0.442871,9.11e-4 l 0.865733,1.761779 1.941913,0.286933 a 0.2469768,0.2469768 72.117863 0 1 0.135988,0.421477 l -1.408025,1.36778 0.327195,1.935537 a 0.2469768,0.2469768 144.11786 0 1 -0.358826,0.259576 z"
       inkscape:path-effect="#path-effect5-9"
       inkscape:label="Estrella2" />
    <path
       id="path17"
       style="display:inline;fill:#b89abc;stroke:none;stroke-width:0.499999;stroke-dasharray:none;stroke-opacity:1;fill-opacity:1"
       d="m 54.08197,23.152075 c -0.390748,3e-6 -0.779265,0.01047 -1.165303,0.02946 a 1.5347921,1.5347921 0 0 0 -0.09405,0.351916 1.5347921,1.5347921 0 0 0 1.53479,1.53479 1.5347921,1.5347921 0 0 0 1.53479,-1.53479 1.5347921,1.5347921 0 0 0 -0.0832,-0.311092 c -0.574227,-0.04293 -1.150053,-0.06998 -1.727027,-0.07028 z m -6.023921,3.195154 a 2.5260119,2.5260119 0 0 0 -2.525945,2.525944 2.5260119,2.5260119 0 0 0 2.525945,2.525944 2.5260119,2.5260119 0 0 0 0.470772,-0.09353 c 0.605131,-0.886008 1.293191,-1.706582 2.050004,-2.458248 a 2.5260119,2.5260119 0 0 0 -2.520776,-2.500106 z m -9.854696,3.047359 c -2.356304,2.190263 -4.259269,4.860466 -5.552116,7.856885 a 5.1040363,5.2438731 0 0 0 4.299479,2.461348 5.1040363,5.2438731 0 0 0 5.104081,-5.244124 5.1040363,5.2438731 0 0 0 -3.851444,-5.074109 z m -4.054016,14.155209 a 1.2150438,1.2150438 0 0 0 -1.21543,1.214912 1.2150438,1.2150438 0 0 0 1.21543,1.214913 1.2150438,1.2150438 0 0 0 1.214913,-1.214913 1.2150438,1.2150438 0 0 0 -1.214913,-1.214912 z m 8.057389,2.813781 a 3.5172317,3.5492067 0 0 0 -3.517098,3.549138 3.5172317,3.5492067 0 0 0 3.517098,3.549137 3.5172317,3.5492067 0 0 0 3.517098,-3.549137 3.5172317,3.5492067 0 0 0 -3.517098,-3.549138 z m 31.815112,9.59218 a 1.6946663,1.6946663 0 0 0 -1.694987,1.694987 1.6946663,1.6946663 0 0 0 1.252637,1.576131 c 0.588584,-0.901218 1.115442,-1.846098 1.577165,-2.828768 a 1.6946663,1.6946663 0 0 0 -1.134815,-0.44235 z m -37.602356,0.703833 a 2.7178609,2.7178609 0 0 0 -2.470133,1.615922 c 0.790465,1.346856 1.710152,2.608016 2.745569,3.764628 a 2.7178609,2.7178609 0 0 0 2.442228,-2.662887 2.7178609,2.7178609 0 0 0 -2.717664,-2.717663 z m 12.789917,2.046386 a 4.1887035,4.2206783 0 0 0 -4.188891,4.220415 4.1887035,4.2206783 0 0 0 4.188891,4.220931 4.1887035,4.2206783 0 0 0 4.188375,-4.220931 4.1887035,4.2206783 0 0 0 -4.188375,-4.220415 z"
       inkscape:label="Cráteres" />
    <path
       id="path38"
       style="display:inline;opacity:0.501672;mix-blend-mode:multiply;fill:#8d5a97;fill-opacity:1;stroke-width:0.264583"
       d="m 45.123344,24.936979 c -8.439575,3.513013 -14.374454,11.836689 -14.374316,21.548556 1.03e-4,12.886372 10.44657,23.332839 23.332942,23.332942 11.674987,-0.02371 21.394196,-8.636655 23.040454,-19.947619 0.154456,-1.061221 -0.04364,-1.318662 -0.467155,-0.812354 A 22.108957,21.045067 0 0 1 55.34856,64.584172 22.108957,21.045067 0 0 1 33.239315,43.539461 22.108957,21.045067 0 0 1 45.123344,24.936979 Z"
       inkscape:label="Sombra luna" />
    <path
       style="display:none;fill:#ff5555;stroke:#000000;stroke-width:0.2;stroke-dasharray:none;stroke-opacity:1"
       d="m 59.54998,55.936207 c -1.5309,1.599508 -2.7561,2.416291 -3.163073,6.214706 -0.294489,2.748566 0.300536,10.970874 3.167229,6.836415 3.403676,-3.208137 4.652688,-3.100326 6.743703,0.07249 0.923349,2.195641 1.580193,3.191697 2.608532,2.656961 1.130479,-0.587848 1.63565,-2.110504 1.63565,-9.495099 0,-7.25892 2.291018,-7.889129 0.949604,-8.410781 -2.652772,-1.380817 -8.690141,0.418903 -11.941645,2.125309 z"
       id="path9"
       sodipodi:nodetypes="csccsscc"
       sodipodi:insensitive="true"
       inkscape:label="Manta Fea" />
    <path
       style="display:inline;fill:#9bb7d7;stroke:none;stroke-width:0.166413;stroke-dasharray:none;stroke-opacity:1;fill-opacity:1"
       d="m 70.139845,66.164182 c -0.455103,-2.549833 -1.706311,-5.697575 -0.688752,-8.465413 0.689886,-1.876542 1.857954,-2.58933 3.158497,-3.688333 0.166708,-0.785368 -2.915947,-1.546953 -5.012778,-1.222883 -2.09683,0.324069 -3.360839,2.894252 -3.360839,2.894252 0,0 -1.672685,-0.360253 -3.453862,-0.03164 -1.756539,0.324067 -3.485004,0.108141 -5.240643,3.893849 -1.782293,3.843182 -0.506834,10.609901 1.558519,13.707649 2.465979,3.69863 0.187929,-1.336741 7.012945,-2.699665 4.477893,-0.399663 6.132908,-3.793953 6.026913,-4.387816 z"
       id="path10"
       sodipodi:nodetypes="sscscssscs"
       inkscape:label="Manta" />
    <path
       id="path18"
       style="display:inline;fill:#ea6d60;stroke-width:0.264583;fill-opacity:1"
       inkscape:transform-center-x="-0.0028733279"
       inkscape:transform-center-y="-0.42909283"
       d="M 57.108369 32.233789 L 57.051988 32.560203 A 0.2469768 0.2469768 0 0 0 57.409772 32.821334 L 59.149517 31.912038 L 60.885446 32.828541 A 0.2469768 0.2469768 0 0 0 61.244502 32.569105 L 60.91724 30.633512 L 62.325059 29.26554 A 0.2469768 0.2469768 0 0 0 62.189407 28.844169 L 61.868504 28.796691 A 0.49395359 0.49395359 0 0 1 61.882917 28.840778 A 0.49395359 0.49395359 0 0 1 61.893938 28.939974 A 0.49395359 0.49395359 0 0 1 61.884612 29.03917 A 0.49395359 0.49395359 0 0 1 61.855786 29.134551 A 0.49395359 0.49395359 0 0 1 61.808308 29.222301 A 0.49395359 0.49395359 0 0 1 61.743873 29.298606 L 60.967262 30.053173 A 0.72340169 0.72340169 0 0 0 60.857468 30.18925 A 0.72340169 0.72340169 0 0 0 60.783707 30.34737 A 0.72340169 0.72340169 0 0 0 60.749793 30.518631 A 0.72340169 0.72340169 0 0 0 60.757848 30.69286 L 60.938435 31.7607 A 0.49395359 0.49395359 0 0 1 60.945218 31.86032 A 0.49395359 0.49395359 0 0 1 60.931653 31.959092 A 0.49395359 0.49395359 0 0 1 60.898587 32.052777 A 0.49395359 0.49395359 0 0 1 60.847294 32.138408 A 0.49395359 0.49395359 0 0 1 60.779891 32.211745 A 0.49395359 0.49395359 0 0 1 60.698924 32.270246 A 0.49395359 0.49395359 0 0 1 60.608206 32.311365 A 0.49395359 0.49395359 0 0 1 60.51113 32.333409 A 0.49395359 0.49395359 0 0 1 60.411086 32.335104 A 0.49395359 0.49395359 0 0 1 60.313162 32.3173 A 0.49395359 0.49395359 0 0 1 60.220748 32.279996 L 59.263126 31.774266 A 0.72340169 0.72340169 0 0 0 59.099919 31.71195 A 0.72340169 0.72340169 0 0 0 58.926962 31.690331 A 0.72340169 0.72340169 0 0 0 58.753581 31.711102 A 0.72340169 0.72340169 0 0 0 58.590373 31.772994 L 57.630631 32.274485 A 0.49395359 0.49395359 0 0 1 57.456402 32.327474 A 0.49395359 0.49395359 0 0 1 57.274967 32.313909 A 0.49395359 0.49395359 0 0 1 57.110488 32.235908 A 0.49395359 0.49395359 0 0 1 57.108369 32.233789 z "
       transform="matrix(1.2190299,0,0,1.2190299,-12.951534,2.9200083)" />
    <path
       id="path25"
       style="display:inline;fill:#a35c88;stroke-width:0.264583;fill-opacity:1"
       inkscape:transform-center-x="-0.0014589987"
       inkscape:transform-center-y="-0.21781009"
       d="M 57.107511 32.240009 L 57.052393 32.560697 A 0.2469768 0.2469768 0 0 0 57.409826 32.821256 L 59.149389 31.911806 L 60.885612 32.828772 A 0.2469768 0.2469768 0 0 0 61.244715 32.569048 L 60.917346 30.633231 L 62.325365 29.265298 A 0.2469768 0.2469768 0 0 0 62.18924 28.844396 L 61.869387 28.796794 A 0.49395359 0.49395359 0 0 1 61.88776 28.853582 A 0.49395359 0.49395359 0 0 1 61.898617 28.952962 A 0.49395359 0.49395359 0 0 1 61.88943 29.052342 A 0.49395359 0.49395359 0 0 1 61.861036 29.147546 A 0.49395359 0.49395359 0 0 1 61.813434 29.235234 A 0.49395359 0.49395359 0 0 1 61.74913 29.312065 L 60.972464 30.066182 A 0.72340169 0.72340169 0 0 0 60.863063 30.202307 A 0.72340169 0.72340169 0 0 0 60.788737 30.360146 A 0.72340169 0.72340169 0 0 0 60.755332 30.531346 A 0.72340169 0.72340169 0 0 0 60.762848 30.705887 L 60.94407 31.77401 A 0.49395359 0.49395359 0 0 1 60.950751 31.87339 A 0.49395359 0.49395359 0 0 1 60.936554 31.971935 A 0.49395359 0.49395359 0 0 1 60.903984 32.066304 A 0.49395359 0.49395359 0 0 1 60.852207 32.151486 A 0.49395359 0.49395359 0 0 1 60.785397 32.224977 A 0.49395359 0.49395359 0 0 1 60.70439 32.283436 A 0.49395359 0.49395359 0 0 1 60.613361 32.324357 A 0.49395359 0.49395359 0 0 1 60.516487 32.34607 A 0.49395359 0.49395359 0 0 1 60.416272 32.348576 A 0.49395359 0.49395359 0 0 1 60.318562 32.330203 A 0.49395359 0.49395359 0 0 1 60.225864 32.292622 L 59.267977 31.787372 A 0.72340169 0.72340169 0 0 0 59.105127 31.724738 A 0.72340169 0.72340169 0 0 0 58.932257 31.70386 A 0.72340169 0.72340169 0 0 0 58.758551 31.723903 A 0.72340169 0.72340169 0 0 0 58.595702 31.785702 L 57.636145 32.287611 A 0.49395359 0.49395359 0 0 1 57.461604 32.340224 A 0.49395359 0.49395359 0 0 1 57.280382 32.326862 A 0.49395359 0.49395359 0 0 1 57.115862 32.248361 A 0.49395359 0.49395359 0 0 1 57.107511 32.240009 z "
       transform="matrix(0.61878763,0,0,0.61878763,19.899517,13.596037)" />
    <path
       id="path28"
       style="display:inline;mix-blend-mode:normal;fill:#9698c2;fill-opacity:1;stroke:none;stroke-width:0.166413;stroke-dasharray:none;stroke-opacity:1"
       inkscape:label="Manta"
       d="m 68.852128,52.712545 c -0.434554,-0.0086 -0.862065,0.01417 -1.25522,0.07493 -0.339086,0.05241 -0.654043,0.167777 -0.947746,0.317293 1.050361,-0.622701 3.635972,-0.03733 3.624068,0.525549 -0.231319,0.427069 -2.356441,-1.690151 -2.717663,6.41718 -0.01726,3.374321 1.609784,6.078125 -0.390928,7.900982 -1.055751,0.822893 -2.350713,0.830014 -3.138573,1.324811 0.724294,-2.674213 0.192342,-6.426067 -0.04961,-5.645133 0,0 -0.941612,4.313461 -1.936833,5.245674 -0.930503,0.871592 -3.596039,1.298627 -5.525244,3.346566 0.186974,0.372687 0.380793,0.724438 0.585494,1.031462 2.465976,3.698626 0.187999,-1.337171 7.013008,-2.700094 4.477889,-0.399663 6.133018,-3.793467 6.027023,-4.387329 -0.455103,-2.549831 -1.706405,-5.697798 -0.688847,-8.465633 0.689885,-1.87654 1.857922,-2.589145 3.158463,-3.688147 0.135451,-0.638111 -1.874327,-1.260965 -3.757393,-1.298112 z m -6.194454,2.803446 c -0.554941,-0.01519 -1.207397,0.01113 -1.875338,0.134359 -0.934326,0.172375 -1.861188,0.196934 -2.787943,0.747241 1.579,0.142386 5.37236,-0.95741 6.020821,4.292761 0.238918,0.209777 -0.160387,-2.792756 0.290422,-5.139221 -0.04389,0.07992 -0.06976,0.130742 -0.06976,0.130742 0,0 -0.653297,-0.140567 -1.578198,-0.165882 z"
       sodipodi:nodetypes="ssccccccscscsscsssccccsss" />
  </g>
</svg>
